<svg xmlns="http://www.w3.org/2000/svg" viewBox="0 0 491.43 505.42"><defs><style>.cls-1,.cls-3,.cls-4,.cls-5,.cls-6,.cls-7{fill:#fff;}.cls-1,.cls-2,.cls-3,.cls-4,.cls-5,.cls-6,.cls-7{stroke:#000;stroke-miterlimit:10;stroke-width:5px;}.cls-2{fill:#00c;}.cls-3,.cls-4,.cls-5,.cls-6,.cls-7{font-size:72px;font-family:Impact, Impact;}.cls-3{letter-spacing:0.01em;}.cls-4{letter-spacing:0.02em;}.cls-5{letter-spacing:0.02em;}.cls-6{letter-spacing:0.02em;}.cls-7{letter-spacing:0.02em;}</style></defs><title>10ball-ghost</title><g id="Ghost"><path id="Ghost_Blob" data-name="Ghost Blob" class="cls-1" d="M442.83,378.15c-16.81,75.9-84.76-28.87-105-11.77-42.86,36.13-73.21,57-98.86,42.67-27.84-15.52-46.77-67.88-81.23-30.9-77.67,83.34-87.14,31.09-91.31,0V184c-6.75-230,368-230,376.44,0C442,327.73,442.83,378.15,442.83,378.15Z" transform="translate(-2.1 -9.05)"/><g id="Stripe"><path class="cls-2" d="M67.67,386.86,428.13,117.35c-11.4-37-66.47-75.17-66.47-75.17L66.3,263Z" transform="translate(-2.1 -9.05)"/></g><path id="L_eye" data-name="L eye" class="cls-1" d="M119.3,153.78H231.9S175.6-.07,119.3,153.78Z" transform="translate(-2.1 -9.05)"/><path id="R_eye" data-name="R eye" class="cls-1" d="M269.14,153.78H381.74S325.44-.07,269.14,153.78Z" transform="translate(-2.1 -9.05)"/><path id="Mouth" class="cls-1" d="M171.4,242.86H342S231.9,389.07,171.4,242.86Z" transform="translate(-2.1 -9.05)"/></g><g id="Slogan"><text class="cls-3" transform="translate(4.42 475.55) scale(1.36 1.15)">T</text><text class="cls-4" transform="translate(50.56 475.55) scale(0.97 1)">he </text><text class="cls-5" transform="translate(139.17 475.55) scale(1.36 1.15)">G</text><text class="cls-4" transform="translate(194.91 475.55) scale(0.97 1)">host </text><text class="cls-6" transform="translate(340.35 475.55) scale(1.36 1.15)">T</text><text class="cls-7" transform="translate(387.28 475.55) scale(0.97 1)">our</text></g></svg>